<?xml version="1.0" standalone="no"?><!DOCTYPE svg PUBLIC "-//W3C//DTD SVG 1.1//EN" "http://www.w3.org/Graphics/SVG/1.1/DTD/svg11.dtd"><svg t="1708482461288" class="icon" viewBox="0 0 1024 1024" version="1.1" xmlns="http://www.w3.org/2000/svg" p-id="6665" xmlns:xlink="http://www.w3.org/1999/xlink" width="200" height="200"><path d="M543.890286 146.285714c5.705143 0 8.484571 2.706286 8.484571 8.118857v318.976h316.854857c5.632 0 8.484571 2.706286 8.484572 8.118858v61.001142c0 5.412571-2.852571 8.045714-8.484572 8.045715H552.374857v319.049143c0 5.412571-2.779429 8.118857-8.484571 8.118857h-63.780572c-5.705143 0-8.484571-2.706286-8.484571-8.118857l-0.073143-319.049143h-316.708571c-5.705143 0-8.557714-2.633143-8.557715-8.045715v-61.001142c0-5.412571 2.852571-8.045714 8.484572-8.045715l316.781714-0.073143v-318.902857c0-5.485714 2.925714-8.192 8.557714-8.192h63.780572z" fill="#000000" fill-opacity=".65" p-id="6666"></path></svg>