<?xml version="1.0" standalone="no"?><!DOCTYPE svg PUBLIC "-//W3C//DTD SVG 1.1//EN" "http://www.w3.org/Graphics/SVG/1.1/DTD/svg11.dtd"><svg t="1709100783389" class="icon" viewBox="0 0 1024 1024" version="1.1" xmlns="http://www.w3.org/2000/svg" p-id="31029" xmlns:xlink="http://www.w3.org/1999/xlink" width="128" height="128"><path d="M558.370388 63.462527l330.797851 105.329354A50.945274 50.945274 0 0 1 924.656716 217.337632v442.576875c-43.996338 67.808159-103.337393 130.506507-178.018069 188.10014-74.685771 57.598726-152.896955 100.973532-234.638647 130.134607-116.842985-50.787343-199.491502-94.8601-247.950647-132.228458-48.448955-37.368358-103.352677-99.368756-164.706069-186.006289V217.332537a50.945274 50.945274 0 0 1 35.488477-48.545751l330.797851-105.329353a152.835821 152.835821 0 0 1 92.740776 0z m-7.081393 198.090508c-44.872597-16.404378-100.851264-1.411184-131.321632 35.549612-17.601592 21.376637-27.520637 45.356577-29.879403 72.867025-2.012338 24.09202 4.605453 49.839761 17.122707 70.391084 12.048557 19.715821 30.118846 37.083065 51.250945 46.767761 6.266269 2.822368 12.522348 5.069055 18.778428 6.964219 0 0.59606-0.117174 1.18193-0.117174 1.884975v210.220578a34.27598 34.27598 0 0 0 34.245413 34.250507 34.27598 34.27598 0 0 0 34.250507-34.250507v-81.49206h57.873831a34.286169 34.286169 0 0 0 34.255602-34.245413h-0.117174v-1.416279a34.27598 34.27598 0 0 0-34.250508-34.245413h-57.873831V494.678607c51.026786-13.587104 86.92792-62.830806 88.578548-115.034428 0.122269-0.820219 0.122269-1.650627 0.122268-2.47594 0.117174-0.713234 0-1.304199 0-2.007244-0.59606-23.506149-7.565373-47.4759-21.264557-66.728119-15.589254-21.957413-36.257751-37.551761-61.65397-46.884936z" p-id="31030"></path></svg>