<?xml version="1.0" standalone="no"?><!DOCTYPE svg PUBLIC "-//W3C//DTD SVG 1.1//EN" "http://www.w3.org/Graphics/SVG/1.1/DTD/svg11.dtd"><svg t="1709101637517" class="icon" viewBox="0 0 1024 1024" version="1.1" xmlns="http://www.w3.org/2000/svg" p-id="60070" xmlns:xlink="http://www.w3.org/1999/xlink" width="128" height="128"><path d="M810.889275 503.466667H756.869565V358.622609l33.762319-33.762319a14.84058 14.84058 0 0 0 0-20.99942l-42.666667-42.666667a14.84058 14.84058 0 0 0-20.99942 0l-34.652754 34.504348H584.125217l-38.956521-38.808116a18.550725 18.550725 0 0 0-26.193624 26.342029l12.54029 12.466087H378.434783v-30.72a14.84058 14.84058 0 0 0-14.84058-14.84058H217.933913a14.84058 14.84058 0 0 0-14.84058 14.84058v101.657971a14.84058 14.84058 0 0 0 14.84058 14.840579h54.242319v140.985508L237.449275 557.189565a14.84058 14.84058 0 0 0 0 20.999421l42.666667 42.666666a14.84058 14.84058 0 0 0 20.99942 0L333.913043 587.835362h103.142029l38.956522 38.733913a18.550725 18.550725 0 1 0 26.193623-26.267826L489.73913 587.835362h160.871884v32.278261a14.84058 14.84058 0 0 0 14.84058 14.84058h145.511884a14.84058 14.84058 0 0 0 14.84058-14.84058V518.307246a14.84058 14.84058 0 0 0-14.914783-14.840579z m-91.269565 0h-54.242319a14.84058 14.84058 0 0 0-14.840579 14.840579v32.278261H489.73913l12.688696-12.614493a18.550725 18.550725 0 1 0-26.416232-25.971014l-39.17913 39.030725H337.326377l-28.048696-28.122899v-140.985507H363.594203a14.84058 14.84058 0 0 0 14.84058-14.84058v-34.133333h153.154782l-12.614493 12.54029a18.550725 18.550725 0 0 0 26.193624 26.342029l39.104927-39.030725h107.891015l27.455072 27.455072z" p-id="60071"></path><path d="M883.014493 8.384928H140.985507a133.565217 133.565217 0 0 0-133.565217 133.565217v742.028985a133.565217 133.565217 0 0 0 133.565217 133.565218h742.028986a133.565217 133.565217 0 0 0 133.565217-133.565218v-742.028985a133.565217 133.565217 0 0 0-133.565217-133.565217zM686.451014 869.954783H338.587826a22.26087 22.26087 0 0 1-18.624927-34.504348l51.942029-79.026087h281.971014l51.942029 79.026087a22.26087 22.26087 0 0 1-19.366957 34.504348z m218.60174-207.768116a59.362319 59.362319 0 0 1-59.362319 59.362319H178.086957a59.362319 59.362319 0 0 1-59.362319-59.362319V217.414493a59.362319 59.362319 0 0 1 59.362319-59.362319h667.826086a59.362319 59.362319 0 0 1 59.362319 59.362319z" p-id="60072"></path></svg>