<?xml version="1.0" standalone="no"?><!DOCTYPE svg PUBLIC "-//W3C//DTD SVG 1.1//EN" "http://www.w3.org/Graphics/SVG/1.1/DTD/svg11.dtd"><svg t="1709101947223" class="icon" viewBox="0 0 1087 1024" version="1.1" xmlns="http://www.w3.org/2000/svg" p-id="76311" xmlns:xlink="http://www.w3.org/1999/xlink" width="135.875" height="128"><path d="M543.115138 842.876301a398.97766 398.97766 0 0 0 4.4793 97.456772l-0.31995-2.335635-0.31995-2.30364c-21.660616 3.679425-46.584721 5.791095-72.020746 5.791095h-1.055835 0.06399c-66.869552 0-130.411623-14.14179-187.84265-39.641806l2.94354 1.183815-25.691986 60.502547-75.508201-152.136229 161.894704-51.351976-24.668146 58.102921c43.833151 19.70892 95.057147 31.195126 148.936729 31.195126 24.476176 0 48.376441-2.36763 71.540821-6.878925l-2.335635 0.38394z m306.288143-352.040994v-2.463615-0.57591c0-92.433557-34.394626-176.868364-91.089767-241.146321l0.351945 0.38394 0.351945 0.415935 69.493141-60.534541a453.433151 453.433151 0 0 1 112.910358 294.258022v0.607905c-2.655585-0.06399-5.343165-0.06399-7.99875-0.06399-28.859491 0-56.983096 3.13551-84.050867 9.054585zM638.492236 145.385284c-127.180128-55.671301-278.964412-37.498141-390.179035 59.158756L187.77866 135.018903C326.349008 14.557725 516.143353-8.350695 674.454616 60.502546L700.178597 0l75.508202 152.136229-161.894704 51.351976 24.668146-58.102921h-0.031995zM145.385284 324.205343c-55.639306 127.148133-37.498141 278.964412 59.126761 390.179034L134.986908 774.918919C14.52573 636.316576-8.350695 446.554226 60.502546 288.178972L0 262.486986l152.136229-75.508201 51.351976 161.894704-58.102921-24.636151z m336.427433-23.068396l2.399625-0.031995a180.675769 180.675769 0 1 1 0 361.351539l-2.399625-0.031995a180.739759 180.739759 0 0 1-0.38394-361.287549h0.38394z m552.329698 532.396813l45.720856 34.874551c4.127355 3.26349 5.31117 8.9586 2.591595 13.501891l-43.321231 73.044586c-2.719575 4.54329-8.350695 6.33501-13.213935 4.54329l-53.943571-21.18069c-10.55835 8.06274-22.620466 15.03765-35.546446 20.380815l-1.055835 0.38394-8.12673 55.863272a10.8783 10.8783 0 0 1-10.686331 8.862615h-86.738447a10.8783 10.8783 0 0 1-10.654335-8.734635v-0.12798l-8.12673-55.863272a166.565974 166.565974 0 0 1-37.434151-21.340665l0.415935 0.287955 0.415935 0.287955-53.943571 21.18069a10.8783 10.8783 0 0 1-13.149946-4.41531l-0.031995-0.031995-0.031995-0.06399-43.321231-73.044586a10.2384 10.2384 0 0 1 2.5596-13.469896l0.031995-0.031995 0.031995-0.031995 45.720856-34.874551c-0.863865-6.750945-1.503765-13.597875-1.503765-20.54079s0.6399-13.82184 1.503765-20.540791l-45.720856-34.874551a10.398375 10.398375 0 0 1-2.527605-13.597875l-0.031995 0.031995-0.031995 0.031995 43.321231-73.044587c2.719575-4.54329 8.350695-6.33501 13.213936-4.54329l53.943571 21.180691c10.55835-8.06274 22.620466-15.03765 35.546446-20.380816l1.055835-0.38394 8.12673-55.863271a10.8783 10.8783 0 0 1 10.68633-8.862615h86.706452c5.407155 0 9.85446 3.90339 10.846306 8.862615l8.12673 55.863271c13.213935 5.37516 25.468021 12.446055 36.602281 20.764756l53.943571-21.180691a10.8783 10.8783 0 0 1 13.149945 4.41531l0.031995 0.031995 0.031995 0.06399 43.321231 73.044587a10.2384 10.2384 0 0 1-2.5596 13.469895l-0.031995 0.031995-0.031995 0.031995-45.816841 34.874551c0.863865 6.750945 1.503765 13.597875 1.503765 20.540791s-0.6399 13.82184-1.503765 20.54079z m-160.998844 53.239682c41.913451 0 75.828152-32.986846 75.828152-73.780472s-33.914701-73.780472-75.828152-73.780472-75.828152 32.986846-75.828152 73.780472 33.914701 73.780472 75.828152 73.780472z" p-id="76312"></path></svg>