<?xml version="1.0" standalone="no"?><!DOCTYPE svg PUBLIC "-//W3C//DTD SVG 1.1//EN" "http://www.w3.org/Graphics/SVG/1.1/DTD/svg11.dtd"><svg t="1709100065746" class="icon" viewBox="0 0 1024 1024" version="1.1" xmlns="http://www.w3.org/2000/svg" p-id="24528" xmlns:xlink="http://www.w3.org/1999/xlink" width="128" height="128"><path d="M369.570909 522.705455l119.389091 20.247272v-104.261818h-119.389091z m143.592727 23.272727l141.265455 23.272727v-130.56h-141.265455z m-143.592727-132.189091H488.727273v-103.098182l-119.389091 20.014546z m143.592727 0h141.265455v-130.327273l-141.265455 23.272727z" p-id="24529"></path><path d="M843.170909 142.661818H180.829091A64.232727 64.232727 0 0 0 116.363636 206.661818v453.352727a64.465455 64.465455 0 0 0 64.465455 64h662.341818A64.465455 64.465455 0 0 0 907.636364 660.014545V206.661818a64.232727 64.232727 0 0 0-64.465455-64zM837.818182 639.301818a15.36 15.36 0 0 1-15.36 15.36H201.774545a15.592727 15.592727 0 0 1-15.592727-15.36V227.607273a15.592727 15.592727 0 0 1 15.592727-15.592728h620.683637a15.36 15.36 0 0 1 15.36 15.592728v411.694545zM689.105455 881.338182H334.429091a37.003636 37.003636 0 0 1-36.770909-37.003637 36.770909 36.770909 0 0 1 36.770909-36.770909h354.676364a36.770909 36.770909 0 0 1 36.770909 36.770909 37.003636 37.003636 0 0 1-36.770909 37.003637z" p-id="24530"></path></svg>