<?xml version="1.0" standalone="no"?><!DOCTYPE svg PUBLIC "-//W3C//DTD SVG 1.1//EN" "http://www.w3.org/Graphics/SVG/1.1/DTD/svg11.dtd"><svg t="1721369827261" class="icon" viewBox="0 0 1024 1024" version="1.1" xmlns="http://www.w3.org/2000/svg" p-id="6813" xmlns:xlink="http://www.w3.org/1999/xlink" width="128" height="128"><path d="M447.4368 508.296533v68.4544C242.244267 592.554667 79.598933 755.1488 63.8976 958.9248L0 958.805333c13.909333-201.437867 150.3232-367.650133 334.711467-425.472-87.210667-49.134933-144.554667-140.288-144.554667-245.691733C190.1568 128.785067 318.941867 0 477.7984 0 636.672 0 765.44 128.785067 765.44 287.6416c0 33.809067-6.4512 65.8432-17.237333 95.880533h-69.12c13.943467-29.149867 22.442667-61.44 22.442666-95.880533 0-123.374933-100.352-223.726933-223.778133-223.726933-123.4432 0-223.658667 100.352-223.658667 223.726933 0 113.015467 84.4288 205.704533 193.365334 220.654933z m575.2832-60.859733H511.368533v575.2832h511.351467V447.4368z m-447.4368 63.931733H958.805333V958.805333H575.2832V511.368533z m319.607467 63.914667H639.197867v63.914667h255.6928v-63.914667z m0 127.829333H639.197867v63.931734h255.6928V703.146667z m-127.829334 127.8464h-127.863466v63.931734h127.8464v-63.931734z" p-id="6814"></path></svg>