<?xml version="1.0" standalone="no"?><!DOCTYPE svg PUBLIC "-//W3C//DTD SVG 1.1//EN" "http://www.w3.org/Graphics/SVG/1.1/DTD/svg11.dtd"><svg t="1719643690232" class="icon" viewBox="0 0 1024 1024" version="1.1" xmlns="http://www.w3.org/2000/svg" p-id="5123" xmlns:xlink="http://www.w3.org/1999/xlink" width="128" height="128"><path d="M42.754 298.53v-60.005c0-26.867 9.638-52.626 26.868-71.647a87.682 87.682 0 0 1 64.994-29.682h103.888V45.632c0-23.413 17.955-42.604 40.941-45.206v-0.34l5.16-0.086c25.461 0 46.188 20.385 46.188 45.462v91.734H707.58V45.632c0-23.413 17.954-42.604 40.941-45.206v-0.34L753.767 0c25.503 0 46.187 20.385 46.187 45.462v91.648h89.132c24.352 0 47.722 10.662 64.952 29.683 17.272 18.978 26.91 44.78 26.91 71.647v683.761c0 26.868-9.638 52.67-26.868 71.647a87.682 87.682 0 0 1-64.994 29.683h-754.47a87.853 87.853 0 0 1-64.952-29.683 106.66 106.66 0 0 1-26.91-71.647V383.824h937.554V298.53H42.754z m697.579 305.353c11.856-11.728 16.547-28.701 12.154-44.694a47.338 47.338 0 0 0-78.556-20.77L458.222 750.76l-81.03-79.75a47.466 47.466 0 0 0-65.335 0.982 45.718 45.718 0 0 0-1.023 64.397l114.209 112.418c18.338 18.082 48.02 18.082 66.359 0l248.93-244.965z" p-id="5124"></path></svg>