
<?xml version="1.0" standalone="no"?><!DOCTYPE svg PUBLIC "-//W3C//DTD SVG 1.1//EN" "http://www.w3.org/Graphics/SVG/1.1/DTD/svg11.dtd"><svg t="1709100875764" class="icon" viewBox="0 0 1024 1024" version="1.1" xmlns="http://www.w3.org/2000/svg" p-id="35297" xmlns:xlink="http://www.w3.org/1999/xlink" width="128" height="128"><path d="M477.098667 473.6c76.8 0 139.605333 69.12 139.605333 153.6v192c0 42.24-31.402667 76.8-69.802667 76.8H197.802667C159.402667 896 128 861.44 128 819.2v-192c0-84.48 62.848-153.6 139.648-153.6h209.450667z m192 76.8h87.253333c76.8 0 139.648 69.12 139.648 153.6v115.2c0 42.24-31.402667 76.8-69.802667 76.8H686.506667v-268.8c0-26.88-6.997333-53.76-17.493334-76.8z m24.405333-268.8c59.349333 0 104.746667 49.92 104.746667 115.2 0 65.28-45.397333 115.2-104.704 115.2-59.349333 0-104.746667-49.92-104.746667-115.2 0-65.28 48.853333-115.2 104.704-115.2zM372.352 128C449.152 128 512 197.12 512 281.6s-62.848 153.6-139.648 153.6-139.605333-69.12-139.605333-153.6S295.552 128 372.352 128z" p-id="35298"></path></svg>