<?xml version="1.0" standalone="no"?><!DOCTYPE svg PUBLIC "-//W3C//DTD SVG 1.1//EN" "http://www.w3.org/Graphics/SVG/1.1/DTD/svg11.dtd"><svg t="1716878932869" class="icon" viewBox="0 0 1025 1024" version="1.1" xmlns="http://www.w3.org/2000/svg" p-id="4596" xmlns:xlink="http://www.w3.org/1999/xlink" width="128.125" height="128"><path d="M684.032 723.968H341.504c-59.904 0-108.544 48.64-108.544 108.544V901.12c0 59.904 48.64 108.544 108.544 108.544h342.528c59.904 0 108.544-48.64 108.544-108.544v-68.608c0.512-28.672-10.752-55.808-31.232-76.288-20.48-20.992-48.128-32.256-77.312-32.256z m-371.2 109.056c0-15.36 13.312-28.672 28.672-28.672h342.528c15.36 0 28.672 13.312 28.672 28.672v68.608c0 15.36-13.312 28.672-28.672 28.672H341.504c-15.36 0-28.672-13.312-28.672-28.672v-68.608zM757.248 458.24L543.744 348.16c-14.848-7.168-24.064-7.168-31.744-7.168-6.656 0-17.408 0-31.744 7.168L267.264 458.24c-21.504 10.24-35.328 34.304-35.328 60.416 0 25.088 14.848 48.64 37.888 59.904L481.28 688.128c11.264 5.632 17.92 7.168 31.744 7.168 8.192 0 23.04 0 35.328-10.24l208.384-107.52c23.552-11.776 36.864-33.792 36.864-59.904 0.512-25.088-13.312-48.128-36.352-59.392z m-59.904 59.904l-184.32 95.744-187.392-95.744L512 422.4l185.344 95.744zM341.504 311.296h342.528c59.904 0 108.544-48.64 108.544-108.544V134.144c0.512-28.672-10.752-55.808-31.232-76.288-20.48-20.992-48.128-32.256-77.312-32.256H341.504C281.6 25.6 232.96 74.24 232.96 134.144v68.608c0 59.904 48.64 108.544 108.544 108.544z m0-205.312h342.528c15.36 0 28.672 13.312 28.672 28.672v68.608c0 15.36-13.312 28.672-28.672 28.672H341.504c-15.36 0-28.672-13.312-28.672-28.672V134.144c0-15.36 13.312-28.16 28.672-28.16z" p-id="4597"></path><path d="M615.424 911.872c13.312 0 25.088-4.608 33.28-12.8 8.192-8.192 12.288-19.456 11.776-32.256 0-27.136-17.92-45.056-45.056-45.056s-45.056 17.92-45.056 45.056c0 26.624 18.432 45.056 45.056 45.056zM409.088 214.528h0.512c27.136 0 45.056-17.92 45.056-45.056s-17.92-45.056-45.056-45.056-45.056 17.92-45.056 45.056c0.512 25.088 18.432 43.008 44.544 45.056zM138.24 86.528c-6.144-5.632-14.848-7.168-22.528-4.096-7.168 3.072-11.776 10.24-11.776 18.432v28.672H39.936c-21.504 0-39.936 18.432-39.936 39.936 0 1.536 0 3.072 0.512 4.608-0.512 1.536-0.512 2.56-0.512 4.096v339.456c0 15.36 9.216 28.672 22.016 35.328l3.072 1.536c0.512 0 1.024 0.512 1.024 0.512 0.512 0.512 1.536 0.512 2.048 1.024 0.512 0 1.024 0.512 2.048 0.512 0.512 0 1.024 0.512 1.536 0.512 1.024 0 1.536 0.512 2.56 0.512h126.976c22.528 0 39.936-17.408 39.936-39.936 0-21.504-18.432-39.936-39.936-39.936H80.384V209.408h23.552v30.72c0 8.192 5.12 15.36 12.288 18.432 2.56 1.024 5.12 1.536 7.68 1.536 5.12 0 10.24-2.048 13.824-5.632l70.144-69.632c8.192-8.192 8.192-20.48 0-28.672L138.24 86.528z m-24.064 153.6zM1024.512 861.184c0-0.512 0-0.512 0 0v-340.992-4.096c-0.512-21.504-18.944-39.424-40.96-39.424h-120.832c-13.312 0-25.6 6.656-33.28 17.92-7.68 10.752-9.216 24.064-4.608 36.352 6.144 15.872 21.504 26.112 38.912 26.112h80.896v268.8h-22.528v-30.208c0-8.192-5.12-15.872-12.8-18.944-7.68-3.072-16.384-1.536-22.528 4.608L818.176 849.92c-8.192 8.192-8.192 20.992 0 29.184l68.608 68.608c4.096 4.096 9.216 6.144 14.848 6.144a20.608 20.608 0 0 0 20.48-20.48V906.24h62.464c13.312 0 25.6-6.656 33.28-17.92 5.632-7.68 8.192-17.408 6.656-27.136z" p-id="4598"></path></svg>