<?xml version="1.0" standalone="no"?><!DOCTYPE svg PUBLIC "-//W3C//DTD SVG 1.1//EN" "http://www.w3.org/Graphics/SVG/1.1/DTD/svg11.dtd"><svg t="1709363348934" class="icon" viewBox="0 0 1024 1024" version="1.1" xmlns="http://www.w3.org/2000/svg" p-id="9523" xmlns:xlink="http://www.w3.org/1999/xlink" width="128" height="128"><path d="M896 767.89V128c0-35.35-28.65-64-64-64H192c-35.35 0-64 28.65-64 64v703.81C128 902.61 185.39 960 256.19 960H832c35.35 0 64-28.65 64-64V767.89zM256.36 895.56c-35.11 0-63.67-28.56-63.67-63.67s28.56-63.67 63.67-63.67H832v127.33H256.36zM832 128v576.22H256.36c-23.47 0-45.46 6.34-64.36 17.39V128h640z" p-id="9524"></path><path d="M554.82 547.53c11.59-3.08 22.43-9.27 32.53-18.58 10.1-9.3 17.99-20.84 23.68-34.61 5.69-13.77 8.53-33.14 8.53-58.13 0-15.95-1.91-31.04-5.74-45.29s-9.99-26.74-18.5-37.48c-8.51-10.74-19.27-18.98-32.29-24.72-13.02-5.74-30.12-8.61-51.27-8.61H404.44V553.9h107.33c12.85 0.01 27.21-2.12 43.05-6.37z m-78.14-46.73V373.07h18.02c18.71 0 32.11 4.57 40.19 13.71 8.08 9.14 12.12 26.1 12.12 50.87 0 18.71-1.81 32.24-5.42 40.59-3.62 8.35-8.61 14.19-14.99 17.54s-17.12 5.02-32.21 5.02h-17.71z" p-id="9525"></path></svg>