<?xml version="1.0" standalone="no"?><!DOCTYPE svg PUBLIC "-//W3C//DTD SVG 1.1//EN" "http://www.w3.org/Graphics/SVG/1.1/DTD/svg11.dtd"><svg t="1722325401362" class="icon" viewBox="0 0 1024 1024" version="1.1" xmlns="http://www.w3.org/2000/svg" p-id="9932" xmlns:xlink="http://www.w3.org/1999/xlink" width="128" height="128"><path d="M828.56 348.4H567.14A146.6 146.6 0 0 0 434 433.52h-88.08c-17.42 0-34.09 13-38.76 30.14l-2.94 10.79h-37.79a16 16 0 0 0 0 32h50a16 16 0 0 0 15.43-11.8l3.51-12.88 45.16 37.15-71.43 54.35a15.93 15.93 0 0 0-15.81-13.76H161.87a16 16 0 0 0 0 32h110.49a31.81 31.81 0 0 0 1.22 20.23 15.8 15.8 0 0 0 7.68 10.61 30.48 30.48 0 0 0 20 7.18h119.21v46.07h554.76V495.07c0-80.88-65.8-146.67-146.67-146.67z m-290.1 229.53l-41.35-53.7 66.2-37.62z m-103.15-55.4l-69.31-57h169.66z m-11.83 31.71a16 16 0 0 0 18.07 1.55l27.45-15.6 44.15 57.34H330.07l75.87-57.73z m29 89.36v-14.07H527a39 39 0 0 0 20.56-6.12 15.73 15.73 0 0 0 7.4-5.84 40.57 40.57 0 0 0 10.81-18.18l34.66-127.33c2.67-9.8 0.94-19.68-4.74-27.11a29.84 29.84 0 0 0-24-11.43H470.35a114.71 114.71 0 0 1 96.79-53.12h0.53a115.33 115.33 0 0 1 115.2 115.2v148z m490.76 0H714.87v-148a147 147 0 0 0-55.67-115.2h169.36a114.8 114.8 0 0 1 114.67 114.67z" p-id="9933"></path><path d="M169.9 506.47h55.35a16 16 0 0 0 0-32H169.9a16 16 0 1 0 0 32zM317 531.52a16 16 0 0 0-16-16H136.59a16 16 0 0 0 0 32H301a16 16 0 0 0 16-16zM93.09 515.52H55.77a16 16 0 1 0 0 32h37.32a16 16 0 1 0 0-32zM93.09 559.81H55.77a16 16 0 1 0 0 32h37.32a16 16 0 1 0 0-32z" p-id="9934"></path></svg>