<?xml version="1.0" standalone="no"?><!DOCTYPE svg PUBLIC "-//W3C//DTD SVG 1.1//EN" "http://www.w3.org/Graphics/SVG/1.1/DTD/svg11.dtd"><svg t="1709101663567" class="icon" viewBox="0 0 1024 1024" version="1.1" xmlns="http://www.w3.org/2000/svg" p-id="65470" xmlns:xlink="http://www.w3.org/1999/xlink" width="128" height="128"><path d="M783.36 542.72h-153.6c-16.896 0-30.72-13.824-30.72-30.72s13.824-30.72 30.72-30.72h153.6c32.768 0 63.488-12.8 87.04-35.84 23.04-23.04 35.84-54.272 35.84-87.04 0-67.584-55.296-122.88-122.88-122.88H322.56c-16.896 0-30.72-13.824-30.72-30.72s13.824-30.72 30.72-30.72h460.8c101.888 0 184.32 82.432 184.32 184.32 0 49.152-18.944 95.744-53.76 130.56-34.816 34.816-81.408 53.76-130.56 53.76z" p-id="65471"></path><path d="M424.96 542.72H271.36c-16.896 0-30.72-13.824-30.72-30.72s13.824-30.72 30.72-30.72h153.6c16.896 0 30.72 13.824 30.72 30.72s-13.824 30.72-30.72 30.72z" p-id="65472"></path><path d="M783.36 542.72h-153.6c-16.896 0-30.72-13.824-30.72-30.72s13.824-30.72 30.72-30.72h153.6c16.896 0 30.72 13.824 30.72 30.72s-13.824 30.72-30.72 30.72zM732.16 849.92H271.36c-101.888 0-184.32-82.432-184.32-184.32 0-49.152 18.944-95.744 53.76-130.56C175.616 500.224 222.208 481.28 271.36 481.28h153.6c16.896 0 30.72 13.824 30.72 30.72s-13.824 30.72-30.72 30.72H271.36c-32.768 0-63.488 12.8-87.04 35.84-23.04 23.04-35.84 54.272-35.84 87.04 0 67.584 55.296 122.88 122.88 122.88h460.8c16.896 0 30.72 13.824 30.72 30.72s-13.824 30.72-30.72 30.72z" p-id="65473"></path><path d="M220.16 337.92c-73.216 0-133.12-59.904-133.12-133.12s59.904-133.12 133.12-133.12 133.12 59.904 133.12 133.12-59.904 133.12-133.12 133.12z m0-204.8c-39.424 0-71.68 32.256-71.68 71.68s32.256 71.68 71.68 71.68 71.68-32.256 71.68-71.68-32.256-71.68-71.68-71.68zM834.56 952.32c-73.216 0-133.12-59.904-133.12-133.12s59.904-133.12 133.12-133.12 133.12 59.904 133.12 133.12-59.904 133.12-133.12 133.12z m0-204.8c-39.424 0-71.68 32.256-71.68 71.68s32.256 71.68 71.68 71.68 71.68-32.256 71.68-71.68-32.256-71.68-71.68-71.68zM527.36 645.12c-73.216 0-133.12-59.904-133.12-133.12s59.904-133.12 133.12-133.12 133.12 59.904 133.12 133.12-59.904 133.12-133.12 133.12z m0-204.8c-39.424 0-71.68 32.256-71.68 71.68s32.256 71.68 71.68 71.68 71.68-32.256 71.68-71.68-32.256-71.68-71.68-71.68z" p-id="65474"></path></svg>