<?xml version="1.0" standalone="no"?><!DOCTYPE svg PUBLIC "-//W3C//DTD SVG 1.1//EN" "http://www.w3.org/Graphics/SVG/1.1/DTD/svg11.dtd"><svg t="1709101698395" class="icon" viewBox="0 0 1024 1024" version="1.1" xmlns="http://www.w3.org/2000/svg" p-id="74101" xmlns:xlink="http://www.w3.org/1999/xlink" width="128" height="128"><path d="M456.1 127.1c-62.8 10.3-119.5 39.6-163.8 85-37.6 38.4-63.7 85.4-76.3 136.9l42.2 0.9-73.9 121.9-68.6-125 44.3 0.9c6.3-30 16.4-59 30.3-86.5 16.3-32.3 37.4-61.8 62.8-87.6C305.6 119.9 372.8 85 447.2 72.9c15-2.4 29.1 7.7 31.6 22.7 2.4 15-7.7 29.1-22.7 31.5zM1024 456.2c0 15.2-12.3 27.5-27.5 27.5S969 471.4 969 456.2c0-37.4-16-72.8-45.1-99.8s-67.4-42.1-108.4-42.8h-5.8c-41 0.7-79.4 15.8-108.4 42.8-29.1 27-45.1 62.4-45.1 99.8 0 15.2-12.3 27.5-27.5 27.5s-27.5-12.3-27.5-27.5c0-52.8 22.3-102.6 62.7-140.1 15.6-14.5 33.3-26.5 52.3-35.6-36.7-28.7-60.3-73.4-60.3-123.6C655.7 70.2 726 0 812.6 0s156.8 70.2 156.8 156.8c0 50.2-23.6 94.9-60.3 123.6 19 9.2 36.6 21.1 52.3 35.6 40.3 37.6 62.6 87.4 62.6 140.2zM809.8 258.6h5.6c54.9-1.5 99.1-46.6 99.1-101.8 0-56.2-45.7-101.8-101.8-101.8-56.2 0-101.8 45.7-101.8 101.8-0.2 55.3 44 100.4 98.9 101.8z m-387 737.9c0 15.2-12.3 27.5-27.5 27.5s-27.5-12.3-27.5-27.5c0-37.4-16-72.8-45.1-99.8s-67.4-42.1-108.4-42.8h-5.8c-41 0.7-79.4 15.8-108.4 42.8C71 923.7 55 959.1 55 996.5c0 15.2-12.3 27.5-27.5 27.5S0 1011.7 0 996.5c0-52.8 22.3-102.6 62.7-140.1 15.6-14.5 33.3-26.5 52.3-35.6-36.7-28.7-60.3-73.4-60.3-123.6 0-86.6 70.2-156.8 156.8-156.8s156.8 70.2 156.8 156.8c0 50.2-23.6 94.9-60.3 123.6 19 9.2 36.6 21.1 52.3 35.6 40.3 37.5 62.5 87.3 62.5 140.1zM208.7 798.9h5.6c54.9-1.5 99.1-46.6 99.1-101.8 0-56.2-45.7-101.8-101.8-101.8-56.2 0-101.8 45.7-101.8 101.8-0.2 55.3 44 100.4 98.9 101.8z m699.7-121.7l-68.6-125-73.9 121.9 42.1 0.9c-12.6 51.5-38.7 98.4-76.3 136.9-44.4 45.3-101 74.7-163.8 85-15 2.4-25.2 16.6-22.7 31.6 2.2 13.5 13.9 23.1 27.1 23.1 1.5 0 3-0.1 4.5-0.4 74.5-12.2 141.6-47 194.3-100.8 25.3-25.9 46.4-55.3 62.8-87.6 13.9-27.5 24.1-56.5 30.3-86.5l44.2 0.9z" p-id="74102"></path></svg>