<?xml version="1.0" standalone="no"?><!DOCTYPE svg PUBLIC "-//W3C//DTD SVG 1.1//EN" "http://www.w3.org/Graphics/SVG/1.1/DTD/svg11.dtd"><svg t="1709101646838" class="icon" viewBox="0 0 1024 1024" version="1.1" xmlns="http://www.w3.org/2000/svg" p-id="61097" xmlns:xlink="http://www.w3.org/1999/xlink" width="128" height="128"><path d="M952.32 655.36h-117.76V512h-286.72V394.24h189.44c35.84 0 71.68-35.84 71.68-71.68V81.92c0-35.84-35.84-71.68-71.68-71.68H286.72c-35.84 0-71.68 35.84-71.68 71.68v240.64c0 35.84 35.84 71.68 71.68 71.68h189.44V512H189.44v143.36H71.68c-35.84 0-71.68 35.84-71.68 71.68v215.04c0 35.84 35.84 71.68 71.68 71.68h307.2c35.84 0 71.68-35.84 71.68-71.68v-215.04c0-35.84-35.84-71.68-71.68-71.68H261.12v-71.68h501.76v71.68h-117.76c-35.84 0-71.68 35.84-71.68 71.68v215.04c0 35.84 35.84 71.68 71.68 71.68h307.2c35.84 0 71.68-35.84 71.68-71.68v-215.04c0-35.84-35.84-71.68-71.68-71.68zM378.88 727.04v215.04h-307.2v-215.04h307.2zM286.72 322.56V81.92h450.56v240.64H286.72z m665.6 619.52h-307.2v-215.04h307.2v215.04z" p-id="61098"></path></svg>