<?xml version="1.0" standalone="no"?><!DOCTYPE svg PUBLIC "-//W3C//DTD SVG 1.1//EN" "http://www.w3.org/Graphics/SVG/1.1/DTD/svg11.dtd"><svg t="1709357791196" class="icon" viewBox="0 0 1024 1024" version="1.1" xmlns="http://www.w3.org/2000/svg" p-id="8749" xmlns:xlink="http://www.w3.org/1999/xlink" width="128" height="128"><path d="M288 928h-96c-52.8 0-96-43.2-96-96v-96c0-17.6 14.4-32 32-32s32 14.4 32 32v96c0 17.6 14.4 32 32 32h96c17.6 0 32 14.4 32 32s-14.4 32-32 32z m544 0h-96c-17.6 0-32-14.4-32-32s14.4-32 32-32h96c17.6 0 32-14.4 32-32v-96c0-17.6 14.4-32 32-32s32 14.4 32 32v96c0 52.8-43.2 96-96 96z m64-608c-17.6 0-32-14.4-32-32v-96c0-17.6-14.4-32-32-32h-96c-17.6 0-32-14.4-32-32s14.4-32 32-32h96c52.8 0 96 43.2 96 96v96c0 17.6-14.4 32-32 32z m-768 0c-17.6 0-32-14.4-32-32v-96c0-52.8 43.2-96 96-96h96c17.6 0 32 14.4 32 32s-14.4 32-32 32h-96c-17.6 0-32 14.4-32 32v96c0 17.6-14.4 32-32 32z m544 448H352c-52.8 0-96-43.2-96-96V352c0-52.8 43.2-96 96-96h320c52.8 0 96 43.2 96 96v320c0 52.8-43.2 96-96 96zM352 320c-17.6 0-32 14.4-32 32v320c0 17.6 14.4 32 32 32h320c17.6 0 32-14.4 32-32V352c0-17.6-14.4-32-32-32H352z" p-id="8750"></path></svg>