<?xml version="1.0" standalone="no"?><!DOCTYPE svg PUBLIC "-//W3C//DTD SVG 1.1//EN" "http://www.w3.org/Graphics/SVG/1.1/DTD/svg11.dtd"><svg t="1719644554926" class="icon" viewBox="0 0 1024 1024" version="1.1" xmlns="http://www.w3.org/2000/svg" p-id="20676" xmlns:xlink="http://www.w3.org/1999/xlink" width="128" height="128"><path d="M787.2 540.8a242.56 242.56 0 0 0-243.2 240 240 240 0 0 0 480 0 234.88 234.88 0 0 0-236.8-240z m92.8 294.4h-147.2v-147.2h70.4v76.8h76.8zM883.2 147.2a85.44 85.44 0 0 0-76.8-89.6h-160v-19.2A48 48 0 0 0 601.6 0a41.28 41.28 0 0 0-38.4 38.4v19.2H320v-19.2A41.28 41.28 0 0 0 281.6 0a41.28 41.28 0 0 0-38.4 38.4v19.2h-160A79.36 79.36 0 0 0 6.4 140.8V256h876.8z" p-id="20677"></path><path d="M496 864H278.4a32 32 0 1 1 0-64h208v-12.8a277.12 277.12 0 0 1 19.2-102.4H275.2a32 32 0 0 1 0-64h262.4a301.44 301.44 0 0 1 252.8-137.6 269.44 269.44 0 0 1 86.4 12.8v-156.8H0v601.6A83.84 83.84 0 0 0 76.8 1024h521.6a337.92 337.92 0 0 1-102.4-160zM275.2 441.6h320a32 32 0 0 1 0 64h-320a32 32 0 1 1 0-64z" p-id="20678"></path></svg>