<?xml version="1.0" standalone="no"?><!DOCTYPE svg PUBLIC "-//W3C//DTD SVG 1.1//EN" "http://www.w3.org/Graphics/SVG/1.1/DTD/svg11.dtd"><svg t="1706233421868" class="icon" viewBox="0 0 1024 1024" version="1.1" xmlns="http://www.w3.org/2000/svg" p-id="3008" xmlns:xlink="http://www.w3.org/1999/xlink" width="200" height="200"><path d="M510.976 967.168c-247.808 0-449.024-201.728-449.024-449.024 0-247.808 201.216-449.024 449.024-449.024 247.808 0 449.024 201.216 449.024 449.024 0 247.296-201.216 449.024-449.024 449.024z m0-842.24C294.4 124.928 117.76 301.056 117.76 518.144c0 216.576 176.128 392.704 392.704 392.704 216.576 0 392.704-176.128 392.704-392.704 0.512-217.088-175.616-393.216-392.192-393.216z" fill="" p-id="3009"></path><path d="M105.472 446.976l-6.656-55.808 118.784-14.336 34.304-75.776 71.168-56.32 17.92-115.712 55.296 8.704-21.504 137.728-77.312 60.928-41.984 92.672zM540.672 752.64L343.04 579.584l145.408-230.912 128-105.984 17.408-113.664 55.296 8.192-20.48 135.168-137.728 113.664-114.688 182.784 129.024 113.152 81.92-53.76V494.08l198.656-32.768 37.376 86.528 54.784-28.672 26.112 49.664-108.544 57.344-44.032-102.4-108.032 17.92v116.736zM283.136 845.312l-56.32-5.632 11.264-113.152-39.936-44.544H113.664v-55.808h110.08l72.704 81.408z" fill="" p-id="3010"></path></svg>