<?xml version="1.0" standalone="no"?><!DOCTYPE svg PUBLIC "-//W3C//DTD SVG 1.1//EN" "http://www.w3.org/Graphics/SVG/1.1/DTD/svg11.dtd"><svg t="1709191825648" class="icon" viewBox="0 0 1024 1024" version="1.1" xmlns="http://www.w3.org/2000/svg" p-id="7623" xmlns:xlink="http://www.w3.org/1999/xlink" width="128" height="128"><path d="M976.556367 468.177771a47.895845 47.895845 0 0 1 47.402074 48.307321 512.123443 512.123443 0 0 1-795.219159 421.927831v26.41678a47.895845 47.895845 0 0 1-95.6271 0v-134.058989a47.895845 47.895845 0 0 1 82.295266-26.41678l-0.658362-0.493772a416.331753 416.331753 0 0 0 713.170779-288.033432 47.895845 47.895845 0 0 1 48.307321-47.402074z m-444.394438-116.530098c0-22.137427 13.331833-27.980391 29.708591-13.002652l163.932171 148.954433a32.918107 32.918107 0 0 1 0 48.883388L561.952815 685.354979c-16.459053 14.895443-29.708591 9.052479-29.708591-12.920357V576.478341H311.775205a39.995499 39.995499 0 0 1-40.16009-39.995499v-48.883388a40.077795 40.077795 0 0 1 40.16009-40.077795h220.386724zM712.141676 40.818452a520.599855 520.599855 0 0 1 83.529696 44.933216V58.676525a47.895845 47.895845 0 0 1 95.709395 0v127.722253a48.225026 48.225026 0 0 1-82.295267 33.90565 416.331753 416.331753 0 0 0-713.170778 288.033433 47.895845 47.895845 0 0 1-95.709395-0.822953A511.958852 511.958852 0 0 1 712.141676 40.818452z" p-id="7624"></path></svg>