<svg t="1750484964350" class="icon" viewBox="0 0 1024 1024" version="1.1" xmlns="http://www.w3.org/2000/svg" p-id="19222" width="32" height="32"><path d="M512 512m-512 0a512 512 0 1 0 1024 0 512 512 0 1 0-1024 0Z" fill="#43CF7C" p-id="19223"></path><path d="M618.4 571.904c-35.168 15.296-24.48 65.728-68.8 68.8-25.984 1.536-165.056-152.832-166.592-180.352-1.536-42.784 35.168-45.856 55.04-55.04 25.984-12.224-24.48-139.072-68.8-139.072-44.32 0-79.488 24.448-82.56 125.344 0 206.336 246.08 360.704 331.712 348.48 65.696-10.72 103.904-47.392 110.048-84.064 7.616-36.704-84.064-94.784-110.08-84.096z" fill="#FFFFFF" p-id="19224"></path></svg>