<svg t="1750485309860" class="icon" viewBox="0 0 1024 1024" version="1.1" xmlns="http://www.w3.org/2000/svg" p-id="21906" width="32" height="32"><path d="M908.075472 388.830189c-2.415094 7.245283-7.245283 19.320755-12.075472 31.396226l0 0 0 2.415094c-36.226415 74.867925-128 224.603774-128 224.603774s0 0 0 0l-26.566038 48.301887 130.415094 0L623.09434 1024l55.54717-224.603774-101.433962 0 36.226415-149.735849c-28.981132 7.245283-62.792453 16.90566-103.849057 28.981132 0 0-55.54717 31.396226-156.981132-62.792453 0 0-70.037736-60.377358-28.981132-77.283019 16.90566-7.245283 82.113208-14.490566 135.245283-21.735849 70.037736-9.660377 113.509434-14.490566 113.509434-14.490566s-214.943396 2.415094-268.075472-4.830189c-50.716981-7.245283-115.924528-94.188679-130.415094-169.056604 0 0-21.735849-41.056604 45.886792-21.735849 67.622642 19.320755 345.358491 74.867925 345.358491 74.867925s-362.264151-111.09434-386.415094-137.660377S108.679245 99.018868 113.509434 24.150943c0 0 2.415094-19.320755 21.735849-14.490566 0 0 268.075472 123.169811 451.622642 190.792453C770.415094 268.075472 929.811321 301.886792 908.075472 388.830189L908.075472 388.830189 908.075472 388.830189zM908.075472 388.830189" fill="#1296db" p-id="21907"></path></svg>