<?xml version="1.0" standalone="no"?><!DOCTYPE svg PUBLIC "-//W3C//DTD SVG 1.1//EN" "http://www.w3.org/Graphics/SVG/1.1/DTD/svg11.dtd"><svg t="1709101449762" class="icon" viewBox="0 0 1024 1024" version="1.1" xmlns="http://www.w3.org/2000/svg" p-id="56107" xmlns:xlink="http://www.w3.org/1999/xlink" width="128" height="128"><path d="M981.79264 278.848h-231.68a43.072 43.072 0 0 1 0-86.08h231.68a43.072 43.072 0 0 1 0 86.08z m0-192.768H437.15264A43.072 43.072 0 0 1 437.15264 0h544.64a43.072 43.072 0 0 1 0 86.08z m-222.72 416a359.552 359.552 0 0 1 3.2 37.568 126.4 126.4 0 0 1 0.64 15.552v40.256a374.272 374.272 0 0 1-159.36 307.84c-10.24 6.912-20.48 13.44-31.36 19.2a330.368 330.368 0 0 1-33.92 16.32 351.104 351.104 0 0 1-137.6 27.84H0.03264V555.072a366.72 366.72 0 0 1 361.6-371.52h39.04a364.8 364.8 0 0 1 358.4 318.848zM503.71264 601.6a56.576 56.576 0 0 0 37.12 19.2h4.48a55.04 55.04 0 0 0 41.6-19.2h1.28v-1.472a58.368 58.368 0 0 0 14.08-37.376c0-2.752-0.64-5.312-0.64-7.936a60.544 60.544 0 0 0-13.44-29.312V524.8h-1.28a54.976 54.976 0 0 0-41.6-19.2 55.808 55.808 0 0 0-41.6 19.2 57.92 57.92 0 0 0 0 77.12zM217.63264 505.6a53.696 53.696 0 0 0-41.6 19.2h-1.28v1.344a56.064 56.064 0 0 0 0 74.304v1.6h1.28a54.144 54.144 0 0 0 40.96 19.2A57.856 57.856 0 0 0 217.63264 505.6z m122.24 19.2H339.23264v0.512a57.92 57.92 0 0 0 0 75.712v0.896h0.64a55.488 55.488 0 0 0 41.6 19.2 56.064 56.064 0 0 0 41.6-19.2V601.6a57.024 57.024 0 0 0 14.72-37.824 59.904 59.904 0 0 0-14.08-37.888V524.8h-0.64a54.464 54.464 0 0 0-83.2 0z m343.04 359.936A404.992 404.992 0 0 0 768.03264 755.2a421.824 421.824 0 0 0 31.36-159.232v-54.912a226.88 226.88 0 0 1 205.44 228.928V1024h-247.68a221.12 221.12 0 0 1-161.92-71.168 290.112 290.112 0 0 0 32-20.48 397.824 397.824 0 0 0 55.68-47.36z m178.56-413.184a43.072 43.072 0 0 1 0-86.08h120.32a43.072 43.072 0 0 1 0 86.08h-120.32z" p-id="56108"></path></svg>