<?xml version="1.0" standalone="no"?><!DOCTYPE svg PUBLIC "-//W3C//DTD SVG 1.1//EN" "http://www.w3.org/Graphics/SVG/1.1/DTD/svg11.dtd"><svg t="1741769672300" class="icon" viewBox="0 0 1024 1024" version="1.1" xmlns="http://www.w3.org/2000/svg" p-id="5656" xmlns:xlink="http://www.w3.org/1999/xlink" width="128" height="128"><path d="M512 1024A512 512 0 1 1 512 0a512 512 0 0 1 0 1024z m0-64A448 448 0 1 0 512 64a448 448 0 0 0 0 896z m176.128-394.752l-204.608 136.448A64 64 0 0 1 384 648.32V375.68a64 64 0 0 1 99.52-53.312l204.608 136.448a64 64 0 0 1 0 106.496v-0.064z" p-id="5657"></path></svg>