<?xml version="1.0" standalone="no"?><!DOCTYPE svg PUBLIC "-//W3C//DTD SVG 1.1//EN" "http://www.w3.org/Graphics/SVG/1.1/DTD/svg11.dtd"><svg t="1709100002559" class="icon" viewBox="0 0 1024 1024" version="1.1" xmlns="http://www.w3.org/2000/svg" p-id="18903" xmlns:xlink="http://www.w3.org/1999/xlink" width="128" height="128"><path d="M42.666667 231.509333a128 128 0 0 1 94.293333-123.477333L399.786667 36.352a426.666667 426.666667 0 0 1 224.512 0l262.741333 71.68A128 128 0 0 1 981.333333 231.509333V490.666667a426.666667 426.666667 0 0 1-119.125333 295.722666A841.856 841.856 0 0 1 768 871.893333c-52.309333 39.978667-117.845333 81.92-196.565333 125.738667a128 128 0 0 1-122.538667 1.066667C385.408 964.821333 321.109333 922.538667 256 871.893333c-28.586667-22.272-55.466667-45.397333-80.682667-69.333333A426.666667 426.666667 0 0 1 42.666667 493.354667V231.509333z m330.666666 381.738667V490.666667a32 32 0 1 0-64 0v122.581333a32 32 0 0 0 64 0z m170.666667 0V277.333333a32 32 0 1 0-64 0v335.914667a32 32 0 0 0 64 0z m169.685333-5.973333V405.333333a32 32 0 1 0-64 0v201.941334a32 32 0 0 0 64 0z"  p-id="18904"></path></svg>