<?xml version="1.0" standalone="no"?><!DOCTYPE svg PUBLIC "-//W3C//DTD SVG 1.1//EN" "http://www.w3.org/Graphics/SVG/1.1/DTD/svg11.dtd"><svg t="1709112159270" class="icon" viewBox="0 0 1024 1024" version="1.1" xmlns="http://www.w3.org/2000/svg" p-id="5657" xmlns:xlink="http://www.w3.org/1999/xlink" width="128" height="128"><path d="M365.714286 438.857143v-73.142857a146.285714 146.285714 0 1 1 292.571428 0v73.142857h36.571429a36.571429 36.571429 0 0 1 36.571428 36.571428v219.428572a36.571429 36.571429 0 0 1-36.571428 36.571428H329.142857a36.571429 36.571429 0 0 1-36.571428-36.571428v-219.428572a36.571429 36.571429 0 0 1 36.571428-36.571428h36.571429z m73.142857 0h146.285714v-73.142857a73.142857 73.142857 0 0 0-146.285714 0v73.142857z m-73.142857 73.142857v146.285714h292.571428v-146.285714h-292.571428z m403.090285-260.388571A364.544 364.544 0 0 0 512 146.285714C310.016 146.285714 146.285714 310.016 146.285714 512s163.730286 365.714286 365.714286 365.714286 365.714286-163.730286 365.714286-365.714286h73.142857c0 242.358857-196.498286 438.857143-438.857143 438.857143S73.142857 754.358857 73.142857 512 269.641143 73.142857 512 73.142857c120.283429 0 229.266286 48.384 308.516571 126.756572l49.042286-49.042286 25.856 181.028571-181.028571-25.856 54.418285-54.418285z" p-id="5658"></path></svg>