<?xml version="1.0" standalone="no"?><!DOCTYPE svg PUBLIC "-//W3C//DTD SVG 1.1//EN" "http://www.w3.org/Graphics/SVG/1.1/DTD/svg11.dtd"><svg t="1721368622201" class="icon" viewBox="0 0 1024 1024" version="1.1" xmlns="http://www.w3.org/2000/svg" p-id="17124" xmlns:xlink="http://www.w3.org/1999/xlink" width="128" height="128"><path d="M924.4 1024H99.6C44.7 1024 0 979.3 0 924.4V99.6C0 44.7 44.7 0 99.6 0h824.9c54.9 0 99.6 44.7 99.6 99.6v824.9c-0.1 54.8-44.8 99.5-99.7 99.5zM99.6 85.3c-7.8 0-14.2 6.4-14.2 14.2v824.9c0 7.8 6.4 14.2 14.2 14.2h824.9c7.8 0 14.2-6.4 14.2-14.2V99.6c0-7.8-6.4-14.2-14.2-14.2H99.6z" p-id="17125"></path><path d="M284.4 284.4m-56.9 0a56.9 56.9 0 1 0 113.8 0 56.9 56.9 0 1 0-113.8 0Z" p-id="17126"></path><path d="M284.4 512m-56.9 0a56.9 56.9 0 1 0 113.8 0 56.9 56.9 0 1 0-113.8 0Z" p-id="17127"></path><path d="M284.4 739.6m-56.9 0a56.9 56.9 0 1 0 113.8 0 56.9 56.9 0 1 0-113.8 0Z" p-id="17128"></path><path d="M768 327.1H483.6c-23.6 0-42.7-19.1-42.7-42.7s19.1-42.7 42.7-42.7H768c23.6 0 42.7 19.1 42.7 42.7s-19.1 42.7-42.7 42.7zM768 554.7H483.6c-23.6 0-42.7-19.1-42.7-42.7s19.1-42.7 42.7-42.7H768c23.6 0 42.7 19.1 42.7 42.7s-19.1 42.7-42.7 42.7zM768 782.2H483.6c-23.6 0-42.7-19.1-42.7-42.7s19.1-42.7 42.7-42.7H768c23.6 0 42.7 19.1 42.7 42.7s-19.1 42.7-42.7 42.7z" p-id="17129"></path></svg>