<?xml version="1.0" standalone="no"?><!DOCTYPE svg PUBLIC "-//W3C//DTD SVG 1.1//EN" "http://www.w3.org/Graphics/SVG/1.1/DTD/svg11.dtd"><svg t="1710835447365" class="icon" viewBox="0 0 1026 1024" version="1.1" xmlns="http://www.w3.org/2000/svg" p-id="6429" xmlns:xlink="http://www.w3.org/1999/xlink" width="128.25" height="128"><path d="M256 852.48H143.36c-15.36 0-28.16-12.8-28.16-28.16 0-15.36 12.8-28.16 28.16-28.16H256c15.36 0 28.16 12.8 28.16 28.16 0 15.36-12.8 28.16-28.16 28.16z" p-id="6430"></path><path d="M1024 256V199.68c0-79.36-64-143.36-143.36-143.36H143.36C64 56.32 0 120.32 0 199.68V256c0 43.52 20.48 87.04 56.32 112.64-35.84 25.6-56.32 69.12-56.32 112.64V537.6c0 43.52 20.48 87.04 56.32 112.64C20.48 680.96 0 721.92 0 768v56.32c0 79.36 64 143.36 143.36 143.36h739.84c79.36 0 143.36-64 143.36-143.36V768c0-43.52-20.48-87.04-56.32-112.64 35.84-25.6 56.32-69.12 56.32-112.64V486.4c0-43.52-20.48-87.04-56.32-112.64 33.28-30.72 53.76-71.68 53.76-117.76z m-56.32 568.32c0 46.08-38.4 84.48-84.48 84.48H143.36c-46.08 0-84.48-38.4-84.48-84.48V768c0-46.08 38.4-84.48 84.48-84.48H883.2c46.08 0 84.48 38.4 84.48 84.48v56.32z m0-284.16c0 46.08-38.4 84.48-84.48 84.48H143.36c-46.08 0-84.48-38.4-84.48-84.48v-56.32c0-46.08 38.4-84.48 84.48-84.48h739.84c46.08 0 84.48 38.4 84.48 84.48v56.32z m0-284.16c0 46.08-38.4 84.48-84.48 84.48H143.36c-46.08 0-84.48-38.4-84.48-84.48V199.68c0-46.08 38.4-84.48 84.48-84.48h739.84c46.08 0 84.48 38.4 84.48 84.48V256z" p-id="6431"></path><path d="M256 568.32H143.36c-15.36 0-28.16-12.8-28.16-28.16S125.44 512 143.36 512H256c15.36 0 28.16 12.8 28.16 28.16s-12.8 28.16-28.16 28.16zM256 256H143.36c-15.36 0-28.16-12.8-28.16-28.16S128 199.68 143.36 199.68H256c15.36 0 28.16 12.8 28.16 28.16S271.36 256 256 256z" p-id="6432"></path></svg>