<?xml version="1.0" standalone="no"?><!DOCTYPE svg PUBLIC "-//W3C//DTD SVG 1.1//EN" "http://www.w3.org/Graphics/SVG/1.1/DTD/svg11.dtd"><svg t="1709102623343" class="icon" viewBox="0 0 1024 1024" version="1.1" xmlns="http://www.w3.org/2000/svg" p-id="34343" xmlns:xlink="http://www.w3.org/1999/xlink" width="128" height="128"><path d="M895.76062 0.649588H128.241878C57.599133 0.649588 0.325419 57.923303 0.325419 128.566048V725.502861c0 70.65024 57.273715 127.916459 127.916459 127.91646h298.503385v85.322194h-85.322195c-47.075176 0-85.258485 38.184558-85.258485 85.258485h511.672083c0-47.073927-38.183309-85.258485-85.253488-85.258485h-85.324693v-85.322194h298.502135c70.646492 0 127.913961-57.267468 127.913961-127.91646V128.566048C1023.674581 57.923303 966.405863 0.649588 895.76062 0.649588zM551.647382 808.089289a42.667968 42.667968 0 0 1-36.944095 21.328987c-23.56632 0-42.66422-19.09915-42.66422-42.66422 0-23.558824 19.09915-42.657974 42.66422-42.657974a42.666719 42.666719 0 0 1 36.944095 21.328987 42.675463 42.675463 0 0 1 0 42.66422z m414.874658-173.686212c0 37.653645-30.521913 68.179305-68.170561 68.179305H125.651019c-37.652396 0-68.173059-30.52691-68.173059-68.179305v-499.99573c0-37.652396 30.521913-68.173059 68.173059-68.173059h772.70046c37.649897 0 68.170561 30.521913 68.170561 68.173059v499.99573z" p-id="34344"></path><path d="M384.081042 341.747238h85.258485v255.834167h-85.258485zM213.500363 427.069432h85.322194v170.511973h-85.322194zM554.662971 256.488753h85.258485v341.092652h-85.258485zM725.179941 171.230268h85.322194v426.351137h-85.322194z" p-id="34345"></path></svg>