<?xml version="1.0" standalone="no"?><!DOCTYPE svg PUBLIC "-//W3C//DTD SVG 1.1//EN" "http://www.w3.org/Graphics/SVG/1.1/DTD/svg11.dtd"><svg t="1709102168222" class="icon" viewBox="0 0 1024 1024" version="1.1" xmlns="http://www.w3.org/2000/svg" p-id="23646" xmlns:xlink="http://www.w3.org/1999/xlink" width="128" height="128"><path d="M295.934316 138.868211c-286.789053 165.338947-286.789053 580.926316 0 746.263578S943.157895 842.674526 943.157895 512 582.723368-26.469053 295.934316 138.868211z m81.958737 630.063157c-205.709474 0-33.566316-231.297684-176.464842-227.309473v-61.813895c134.802526 16.725895-25.92-246.251789 175.467789-223.321263v47.855158c-112.325053 2.657684-0.665263 146.223158-101.692632 206.373052 101.692632 66.795789-5.315368 219.001263 102.689685 202.386527v55.831579z m-7.218527-224.710736c-23.208421-13.381053-23.208421-47.014737 0-60.39579 23.210105-13.381053 52.380632 3.435789 52.380632 30.197895s-29.170526 43.578947-52.378947 30.197895z m123.84 0c-23.211789-13.381053-23.211789-47.014737 0-60.39579 23.208421-13.381053 52.378947 3.435789 52.378948 30.197895s-29.170526 43.578947-52.378948 30.197895z m123.838316 0c-23.210105-13.381053-23.210105-47.014737 0-60.39579 23.208421-13.381053 52.378947 3.435789 52.378947 30.197895s-29.170526 43.578947-52.378947 30.197895z m27.754105 224.710736v-55.831579c108.005053 16.618105 0.997053-135.587368 102.688-202.384842-101.025684-60.151579 10.634105-203.715368-101.690947-206.373052v-47.855158c201.389474-22.930526 40.665263 240.047158 175.467789 223.321263v61.813895c-142.900211-3.988211 29.244632 227.309474-176.464842 227.309473z" p-id="23647"></path></svg>