<?xml version="1.0" standalone="no"?><!DOCTYPE svg PUBLIC "-//W3C//DTD SVG 1.1//EN" "http://www.w3.org/Graphics/SVG/1.1/DTD/svg11.dtd"><svg t="1721369504000" class="icon" viewBox="0 0 1024 1024" version="1.1" xmlns="http://www.w3.org/2000/svg" p-id="34271" xmlns:xlink="http://www.w3.org/1999/xlink" width="128" height="128"><path d="M0 351.872v128h294.4v-128zM256 448H38.4v-64h217.6zM0 160v128h294.4v-128zM256 256H38.4v-64h217.6zM0 541.312v128h294.4v-128z m256 96H38.4v-64h217.6zM0 733.312v128h294.4v-128z m256 96H38.4v-64h217.6zM729.6 351.872v128h294.4v-128zM985.6 448H768v-64h217.6zM729.6 160v128h294.4v-128zM985.6 256H768v-64h217.6zM729.6 541.312v128h294.4v-128z m256 96H768v-64h217.6zM729.6 733.312v128h294.4v-128z m256 96H768v-64h217.6z"  p-id="34272"></path><path d="M352 157.312h294.4v128h-294.4zM352 349.184h294.4v128h-294.4zM352 541.312h294.4v128h-294.4zM352 733.312h294.4v128h-294.4z"  p-id="34273"></path></svg>