<?xml version="1.0" standalone="no"?><!DOCTYPE svg PUBLIC "-//W3C//DTD SVG 1.1//EN" "http://www.w3.org/Graphics/SVG/1.1/DTD/svg11.dtd"><svg t="1719644449938" class="icon" viewBox="0 0 1024 1024" version="1.1" xmlns="http://www.w3.org/2000/svg" p-id="18643" xmlns:xlink="http://www.w3.org/1999/xlink" width="128" height="128"><path d="M178.752 774.656v-18.944c0-9.472 9.728-18.944 19.456-18.944H473.6l9.728-9.536 149.12-142.208H198.144c-9.728 0-19.456-9.472-19.456-18.944v-18.944c0-9.536 9.728-19.008 19.456-19.008h495.744l191.232-183.296V35.072a35.52 35.52 0 0 0-35.648-34.752H295.424l-252.8 3.2C16.704 0.32 0.512 22.4 0.512 41.408v932.352c0 19.008 19.456 41.088 38.912 37.952h298.112l61.568-180.16v-3.2c0-6.272 6.464-31.552 6.464-37.888H194.944c-6.464 3.2-16.192-6.336-16.192-15.808z m0-461.44c0-9.472 9.728-18.944 19.456-18.944h512c9.664 0 19.392 9.472 19.392 18.944v19.008c0 9.472-9.728 18.944-19.392 18.944h-512c-9.728 0-19.456-9.472-19.456-18.944v-19.008zM1014.784 537.6l-90.752-85.312c-12.928-12.608-35.648-9.472-51.84 3.2l-48.64 47.36 136.128 129.6 48.64-47.36a34.432 34.432 0 0 0 6.464-47.488z m-476.352 237.056l-61.568 53.76c-3.2 0-6.464 6.272-6.464 12.608v3.2l-55.104 161.152c-3.2 6.336 0 9.472 3.2 12.672 3.264 3.136 9.728 3.136 12.992 3.136l168.512-50.56h3.2c6.528 0 9.792-6.336 12.992-6.336l324.032-306.56-136.064-129.6-265.728 246.528z" p-id="18644"></path></svg>