<?xml version="1.0" standalone="no"?><!DOCTYPE svg PUBLIC "-//W3C//DTD SVG 1.1//EN" "http://www.w3.org/Graphics/SVG/1.1/DTD/svg11.dtd"><svg t="1709100014901" class="icon" viewBox="0 0 1024 1024" version="1.1" xmlns="http://www.w3.org/2000/svg" p-id="20932" xmlns:xlink="http://www.w3.org/1999/xlink" width="128" height="128"><path d="M429.634783 723.478261c15.582609-115.756522 91.269565-182.53913 124.660869-209.252174h2.226087c4.452174-2.226087 8.904348-4.452174 13.356522-8.904348 97.947826-40.069565 166.956522-131.33913 166.956522-244.869565C739.06087 117.982609 618.852174 0 471.930435 0c-149.147826 0-267.130435 117.982609-267.130435 262.678261 0 111.304348 73.46087 207.026087 171.408696 244.869565-48.973913 13.356522-93.495652 33.391304-129.113044 55.652174C77.913043 665.6 44.521739 808.069565 44.521739 1006.191304c0 13.356522 17.808696 17.808696 33.391304 17.808696h516.452174l-46.747826-22.26087c-46.747826-22.26087-140.243478-131.33913-117.982608-278.260869z" p-id="20933"></path><path d="M727.930435 661.147826l-89.043478 82.365217v133.565218h37.843478v-66.782609H779.130435v66.782609h37.843478v-133.565218zM816.973913 678.956522h-17.808696l17.808696 15.582608z" p-id="20934"></path><path d="M727.930435 518.678261c-138.017391 0-251.547826 111.304348-251.547826 249.321739 0 138.017391 113.530435 249.321739 251.547826 249.321739 138.017391 0 251.547826-111.304348 251.547826-249.321739 0-138.017391-111.304348-249.321739-251.547826-249.321739z m144.695652 256c-2.226087 4.452174-6.678261 4.452174-13.356522 4.452174-2.226087 0-6.678261 0-8.904348-2.226087v111.304348c0 13.356522-11.130435 24.486957-24.486956 24.486956h-84.591304v-66.782609H712.347826v66.782609h-84.591304c-13.356522 0-24.486957-11.130435-24.486957-24.486956v-111.304348c-2.226087 2.226087-4.452174 2.226087-8.904348 2.226087s-8.904348-2.226087-13.356521-4.452174-4.452174-8.904348-4.452174-13.356522c0-4.452174 2.226087-8.904348 4.452174-13.356522l122.434782-115.756521c13.356522-11.130435 31.165217-11.130435 44.521739 0l22.26087 22.260869c2.226087-4.452174 8.904348-8.904348 15.582609-8.904348h46.747826c8.904348 0 17.808696 8.904348 17.808695 17.808696v46.747826c0 6.678261-2.226087 11.130435-6.67826 13.356522l26.713043 26.713043c4.452174 2.226087 4.452174 6.678261 4.452174 13.356522 2.226087 2.226087 2.226087 6.678261-2.226087 11.130435z" p-id="20935"></path></svg>