<?xml version="1.0" standalone="no"?><!DOCTYPE svg PUBLIC "-//W3C//DTD SVG 1.1//EN" "http://www.w3.org/Graphics/SVG/1.1/DTD/svg11.dtd"><svg t="1709101435300" class="icon" viewBox="0 0 1024 1024" version="1.1" xmlns="http://www.w3.org/2000/svg" p-id="54511" xmlns:xlink="http://www.w3.org/1999/xlink" width="128" height="128"><path d="M994.324496 355.546877C945.435238 115.09971 731.532238-26.919085 457.442463 4.349044 184.452446 35.392223-6.180667 242.271766 25.23743 485.868242 48.332355 664.429007 196.9497 769.655886 306.275678 825.568601 353.490304 849.788279 374.060784 888.929679 366.912355 943.242745 362.463332 981.259391 340.468165 1015.676829 350.765903 1022.825258 360.188832 1031.298396 439.746351 971.861456 474.538706 939.66853 522.178239 897.25285 551.996687 887.405014 630.179508 851.887818 728.182974 807.197637 831.435287 760.432913 903.569437 678.650882 985.551423 582.696966 1018.619158 471.871317 994.324496 355.546877L994.324496 355.546877ZM268.558966 490.417242C227.842912 490.417242 194.850161 457.424492 194.850161 416.733433 194.850161 376.017379 227.842912 343.024628 268.558966 343.024628 309.250025 343.024628 342.242775 376.017379 342.242775 416.733433 342.242775 457.424492 309.250025 490.417242 268.558966 490.417242L268.558966 490.417242ZM514.005035 490.417242C473.313976 490.417242 440.321225 457.424492 440.321225 416.733433 440.321225 376.017379 473.313976 343.024628 514.005035 343.024628 554.696094 343.024628 587.688844 376.017379 587.688844 416.733433 587.688844 457.424492 554.696094 490.417242 514.005035 490.417242L514.005035 490.417242ZM767.824264 490.417242C727.133205 490.417242 694.140454 457.424492 694.140454 416.733433 694.140454 376.017379 727.133205 343.024628 767.824264 343.024628 808.540317 343.024628 841.533068 376.017379 841.533068 416.733433 841.533068 457.424492 808.540317 490.417242 767.824264 490.417242L767.824264 490.417242Z" p-id="54512"></path></svg>