<?xml version="1.0" standalone="no"?><!DOCTYPE svg PUBLIC "-//W3C//DTD SVG 1.1//EN" "http://www.w3.org/Graphics/SVG/1.1/DTD/svg11.dtd"><svg t="1709112079874" class="icon" viewBox="0 0 1024 1024" version="1.1" xmlns="http://www.w3.org/2000/svg" p-id="4223" xmlns:xlink="http://www.w3.org/1999/xlink" width="128" height="128"><path d="M911.996605 657.354551l-51.764905 37.479313 34.546149 50.406959H447.470401v65.181413h569.088054l-104.56185-152.904731z m-383.918523 366.645449l56.707829-28.842775-26.344154-54.752387h458.116698v-65.181413H456.432845z" p-id="4224"></path><path d="M699.179291 650.456185l44.703586-46.007214a455.781031 455.781031 0 0 0-119.010397-60.781668 293.316359 293.316359 0 0 0 140.248674-251.002758 284.679822 284.679822 0 1 0-569.142372 0 293.316359 293.316359 0 0 0 140.35731 251.002758 485.601528 485.601528 0 0 0-328.514322 431.989816h63.22597a416.237641 416.237641 0 0 1 409.502228-390.273711 399.181837 399.181837 0 0 1 218.520688 65.181413z m-439.974538-357.737322A221.399533 221.399533 0 1 1 480.441332 520.364948a224.76724 224.76724 0 0 1-221.236579-227.646085z" p-id="4225"></path></svg>